{
  "accessors": [
    {
      "bufferView": 2,
      "componentType": 5126,
      "count": 45627,
      "max": [
        0.2790669798851013,
        0.298739492893219,
        0.004000000189989805
      ],
      "min": [
        0.0036125173792243004,
        0.023173905909061432,
        -0.004000000189989805
      ],
      "type": "VEC3"
    },
    {
      "bufferView": 2,
      "byteOffset": 547524,
      "componentType": 5126,
      "count": 45627,
      "max": [
        1.0,
        1.0,
        1.0
      ],
      "min": [
        -1.0,
        -1.0,
        -1.0
      ],
      "type": "VEC3"
    },
    {
      "bufferView": 1,
      "componentType": 5126,
      "count": 45627,
      "max": [
        1.0,
        1.0
      ],
      "min": [
        0.0,
        0.0
      ],
      "type": "VEC2"
    },
    {
      "bufferView": 0,
      "componentType": 5125,
      "count": 86418,
      "type": "SCALAR"
    },
    {
      "bufferView": 2,
      "byteOffset": 1095048,
      "componentType": 5126,
      "count": 644,
      "max": [
        0.16205528378486633,
        0.18180890381336212,
        0.004000000189989805
      ],
      "min": [
        0.12056776881217957,
        0.14038661122322083,
        -0.004000000189989805
      ],
      "type": "VEC3"
    },
    {
      "bufferView": 2,
      "byteOffset": 1102776,
      "componentType": 5126,
      "count": 644,
      "max": [
        0.9999985694885254,
        0.9999924898147583,
        1.0
      ],
      "min": [
        -0.9999839067459106,
        -0.999956488609314,
        -1.0
      ],
      "type": "VEC3"
    },
    {
      "bufferView": 1,
      "byteOffset": 365016,
      "componentType": 5126,
      "count": 644,
      "max": [
        1.0,
        1.0
      ],
      "min": [
        0.0,
        0.0
      ],
      "type": "VEC2"
    },
    {
      "bufferView": 0,
      "byteOffset": 345672,
      "componentType": 5125,
      "count": 1152,
      "type": "SCALAR"
    },
    {
      "bufferView": 2,
      "byteOffset": 1110504,
      "componentType": 5126,
      "count": 292,
      "max": [
        0.15099194645881653,
        0.17063505947589874,
        0.004000000189989805
      ],
      "min": [
        0.13160288333892822,
        0.1512783169746399,
        -0.004000000189989805
      ],
      "type": "VEC3"
    },
    {
      "bufferView": 2,
      "byteOffset": 1114008,
      "componentType": 5126,
      "count": 292,
      "max": [
        0.9999988079071045,
        0.9999899864196777,
        1.0
      ],
      "min": [
        -0.9999985694885254,
        -0.9999874830245972,
        -1.0
      ],
      "type": "VEC3"
    },
    {
      "bufferView": 1,
      "byteOffset": 370168,
      "componentType": 5126,
      "count": 292,
      "max": [
        1.0,
        1.0
      ],
      "min": [
        0.0,
        0.0
      ],
      "type": "VEC2"
    },
    {
      "bufferView": 0,
      "byteOffset": 350280,
      "componentType": 5125,
      "count": 564,
      "type": "SCALAR"
    }
  ],
  "asset": {
    "extras": {
      "author": "threedxar (https://sketchfab.com/threedxar)",
      "license": "CC-BY-4.0 (http://creativecommons.org/licenses/by/4.0/)",
      "source": "https://sketchfab.com/3d-models/ashoka-chakra-052439e9c1ab4c7894986a6b9842dc92",
      "title": "Ashoka Chakra"
    },
    "generator": "Sketchfab-12.65.0",
    "version": "2.0"
  },
  "bufferViews": [
    {
      "buffer": 0,
      "byteLength": 352536,
      "name": "floatBufferViews",
      "target": 34963
    },
    {
      "buffer": 0,
      "byteLength": 372504,
      "byteOffset": 352536,
      "byteStride": 8,
      "name": "floatBufferViews",
      "target": 34962
    },
    {
      "buffer": 0,
      "byteLength": 1117512,
      "byteOffset": 725040,
      "byteStride": 12,
      "name": "floatBufferViews",
      "target": 34962
    }
  ],
  "buffers": [
    {
      "byteLength": 1842552,
      "uri": "scene.bin"
    }
  ],
  "materials": [
    {
      "doubleSided": true,
      "name": "SVGMat",
      "pbrMetallicRoughness": {
        "baseColorFactor": [
          0.0,
          0.0,
          0.215861,
          1.0
        ],
        "metallicFactor": 0.0,
        "roughnessFactor": 0.9961824300152509
      }
    }
  ],
  "meshes": [
    {
      "name": "Curve.002_SVGMat_0",
      "primitives": [
        {
          "attributes": {
            "NORMAL": 1,
            "POSITION": 0,
            "TEXCOORD_0": 2
          },
          "indices": 3,
          "material": 0,
          "mode": 4
        }
      ]
    },
    {
      "name": "Curve.028_SVGMat_0",
      "primitives": [
        {
          "attributes": {
            "NORMAL": 5,
            "POSITION": 4,
            "TEXCOORD_0": 6
          },
          "indices": 7,
          "material": 0,
          "mode": 4
        }
      ]
    },
    {
      "name": "Curve.030_SVGMat_0",
      "primitives": [
        {
          "attributes": {
            "NORMAL": 9,
            "POSITION": 8,
            "TEXCOORD_0": 10
          },
          "indices": 11,
          "material": 0,
          "mode": 4
        }
      ]
    }
  ],
  "nodes": [
    {
      "children": [
        1
      ],
      "matrix": [
        1.0,
        0.0,
        0.0,
        0.0,
        0.0,
        2.220446049250313e-16,
        -1.0,
        0.0,
        0.0,
        1.0,
        2.220446049250313e-16,
        0.0,
        0.0,
        0.0,
        0.0,
        1.0
      ],
      "name": "Sketchfab_model"
    },
    {
      "children": [
        2
      ],
      "matrix": [
        1.0,
        0.0,
        0.0,
        0.0,
        0.0,
        0.0,
        1.0,
        0.0,
        0.0,
        -1.0,
        0.0,
        0.0,
        0.0,
        0.0,
        0.0,
        1.0
      ],
      "name": "2d47657b15324aa796d38ec69b7fa007.fbx"
    },
    {
      "children": [
        3,
        6,
        8,
        10,
        12
      ],
      "name": "RootNode"
    },
    {
      "children": [
        4
      ],
      "matrix": [
        -29.086440961824223,
        95.51712183896669,
        -5.518911828821743,
        0.0,
        56.63931372156609,
        21.83910779873677,
        79.46723546031515,
        0.0,
        77.11009722030138,
        19.988316741415442,
        -60.45246149265158,
        0.0,
        -4.165518283843994,
        -27.40325927734375,
        620.1141357421875,
        1.0
      ],
      "name": "Light"
    },
    {
      "children": [
        5
      ],
      "matrix": [
        1.0,
        0.0,
        0.0,
        0.0,
        0.0,
        2.220446049250313e-16,
        1.0,
        0.0,
        0.0,
        -1.0,
        2.220446049250313e-16,
        0.0,
        0.0,
        0.0,
        0.0,
        1.0
      ],
      "name": "Object_4"
    },
    {
      "name": "Object_5"
    },
    {
      "children": [
        7
      ],
      "matrix": [
        -651.5583413454195,
        -445.27125280807496,
        -614.1702672513745,
        0.0,
        -324.01340564035064,
        895.395660784895,
        -305.4206959958905,
        0.0,
        685.9205319501156,
        -2.1604841249356355e-06,
        -727.6764554726718,
        0.0,
        -8408.818359375,
        -10486.1845703125,
        24806.146484375,
        1.0
      ],
      "name": "Camera"
    },
    {
      "name": "Object_7"
    },
    {
      "children": [
        9
      ],
      "matrix": [
        111080.2109375,
        0.0,
        0.0,
        0.0,
        0.0,
        111080.21093749988,
        0.004855470625898001,
        0.0,
        0.0,
        -0.004855470625898001,
        111080.21093749988,
        0.0,
        -15767.7109375,
        -17907.7578125,
        -17.3828125,
        1.0
      ],
      "name": "Curve.002"
    },
    {
      "mesh": 0,
      "name": "Curve.002_SVGMat_0"
    },
    {
      "children": [
        11
      ],
      "matrix": [
        111080.2109375,
        0.0,
        0.0,
        0.0,
        0.0,
        111080.21093749988,
        0.004855470625898001,
        0.0,
        0.0,
        -0.004855470625898001,
        111080.21093749988,
        0.0,
        -15767.7109375,
        -17907.7578125,
        -17.3828125,
        1.0
      ],
      "name": "Curve.028"
    },
    {
      "mesh": 1,
      "name": "Curve.028_SVGMat_0"
    },
    {
      "children": [
        13
      ],
      "matrix": [
        111080.2109375,
        0.0,
        0.0,
        0.0,
        0.0,
        111080.21093749988,
        0.004855470625898001,
        0.0,
        0.0,
        -0.004855470625898001,
        111080.21093749988,
        0.0,
        -15767.7109375,
        -17907.7578125,
        -17.3828125,
        1.0
      ],
      "name": "Curve.030"
    },
    {
      "mesh": 2,
      "name": "Curve.030_SVGMat_0"
    }
  ],
  "scene": 0,
  "scenes": [
    {
      "name": "Sketchfab_Scene",
      "nodes": [
        0
      ]
    }
  ]
}
